<svg width="20" height="21" viewBox="0 0 20 21" fill="none" xmlns="http://www.w3.org/2000/svg">
    <g id="Raffle" clip-path="url(#clip0_1102_2451)">
        <path id="Icon"
            d="M6.9195 13.214L6.16667 19.1001L10.1433 16.6224C10.273 16.5415 10.3378 16.5011 10.4071 16.4854C10.4683 16.4714 10.5317 16.4714 10.5929 16.4854C10.6622 16.5011 10.727 16.5415 10.8567 16.6224L14.8333 19.1001L14.081 13.2115M14.3358 3.12409C14.4696 3.46026 14.7265 3.72747 15.05 3.86697L16.1844 4.35493C16.5081 4.49419 16.7653 4.76129 16.8994 5.09749C17.0335 5.43368 17.0335 5.81142 16.8994 6.14762L16.4299 7.32481C16.2957 7.66116 16.2956 8.03928 16.4303 8.37546L16.899 9.55231C16.9655 9.71882 16.9997 9.89731 16.9998 10.0776C16.9998 10.2578 16.9656 10.4363 16.8992 10.6028C16.8328 10.7694 16.7354 10.9207 16.6127 11.0481C16.4899 11.1756 16.3442 11.2766 16.1838 11.3456L15.0502 11.8332C14.7265 11.9722 14.4692 12.239 14.3349 12.5749L13.865 13.753C13.7309 14.0892 13.4737 14.3563 13.15 14.4955C12.8263 14.6348 12.4625 14.6348 12.1388 14.4955L11.0052 14.0079C10.6815 13.869 10.3179 13.8693 9.99435 14.0087L8.85998 14.496C8.53643 14.6349 8.17301 14.6348 7.84954 14.4957C7.52607 14.3565 7.26901 14.0897 7.13483 13.7539L6.66482 12.5755C6.53097 12.2393 6.27405 11.9721 5.95055 11.8326L4.81618 11.3447C4.49259 11.2055 4.23547 10.9385 4.10132 10.6025C3.96718 10.2665 3.967 9.88895 4.10082 9.55281L4.57035 8.37562C4.70411 8.03941 4.70384 7.66181 4.56959 7.32581L4.10073 6.14693C4.03426 5.98041 4.00003 5.80193 4 5.62167C3.99997 5.44142 4.03415 5.26292 4.10057 5.09639C4.16699 4.92986 4.26436 4.77854 4.38712 4.65111C4.50987 4.52367 4.65561 4.42259 4.81599 4.35367L5.94954 3.86606C6.27297 3.72718 6.53012 3.46071 6.66455 3.12514L7.13442 1.94709C7.26851 1.6109 7.52571 1.3438 7.84944 1.20454C8.17317 1.06528 8.53691 1.06528 8.86064 1.20454L9.9942 1.69215C10.3179 1.83106 10.6815 1.83078 11.0051 1.69136L12.1399 1.2053C12.4636 1.06612 12.8273 1.06615 13.1509 1.20538C13.4746 1.3446 13.7318 1.61163 13.8659 1.94774L14.3359 3.12613L14.3358 3.12409Z"
            stroke="white" stroke-width="1.5" stroke-linecap="round" stroke-linejoin="round" />
    </g>
    <defs>
        <clipPath id="clip0_1102_2451">
            <rect width="20" height="20" fill="white" transform="translate(0 0.100098)" />
        </clipPath>
    </defs>
</svg>