<svg width="151" height="32" viewBox="0 0 151 32" fill="none" xmlns="http://www.w3.org/2000/svg">
<g id="Ferrari" clip-path="url(#clip0_1544_15026)">
<g id="layer1">
<path id="path4550" d="M0.41918 31.6337C0.259182 31.4798 0.128271 30.4774 0.128271 29.4062V27.4585L2.56242 27.3363L4.99656 27.2142L5.10904 15.9151L5.22152 4.61589H2.67485H0.128174V2.3764V0.136922L10.3939 0.111995C16.0401 0.0981449 36.3757 0.101219 55.5843 0.118148C74.7928 0.135076 101.039 0.146306 113.908 0.143074L137.307 0.136922L137.191 2.2746L137.075 4.4123L74.7257 4.51541L12.3762 4.61852L12.4964 8.99433C12.6101 13.1374 12.6655 13.3769 13.5384 13.4964C14.2736 13.597 14.488 13.3908 14.5967 12.4785C14.7196 11.4481 14.9122 11.3218 16.5323 11.209L18.3315 11.0838V15.3826V19.6813H16.8498C16.0349 19.6813 15.2253 19.7272 15.0507 19.7831C14.876 19.8391 14.6718 19.37 14.5967 18.7406C14.4879 17.8283 14.2736 17.622 13.5384 17.7227C12.6525 17.844 12.6165 18.0316 12.6165 22.5315V27.2141L15.072 27.3367L17.5275 27.4594L17.4003 29.5761L17.2731 31.6928L8.99164 31.8031C4.43681 31.8637 0.579179 31.7877 0.41918 31.6337ZM23.5255 31.2931C22.7734 30.9786 21.774 30.1155 21.3046 29.375C20.522 28.1403 20.4511 27.3325 20.4496 19.6346C20.4481 11.6392 20.4917 11.1872 21.3658 10.1183C22.9029 8.23879 24.4765 7.8733 31.0313 7.8733C40.558 7.8733 41.1912 8.43075 41.1912 16.8181V21.7174H34.4001H27.609L27.7327 24.873L27.8564 28.0286L30.1847 28.271C33.4426 28.6102 33.9947 28.2485 33.9947 25.7748V23.7532H37.593H41.1913V25.8093C41.1913 28.5739 40.2653 30.1573 38.0941 31.1055C36.631 31.7444 35.329 31.8777 30.608 31.8719C26.6467 31.8673 24.4734 31.6894 23.5255 31.2931ZM33.9946 15.643C33.9946 11.2348 33.9309 11.1307 31.2323 11.1307C27.6338 11.1307 27.6447 11.1184 27.6447 15.2461V18.8671H30.8196H33.9946V15.643ZM43.7312 29.5102C43.7312 27.184 43.7579 27.1285 44.7895 27.3182L45.8478 27.5128V19.7289V11.9451H44.7895C43.8017 11.9451 43.7312 11.8093 43.7312 9.90919V7.8733H48.3878H53.0444V9.29844C53.0444 10.0822 53.134 10.7236 53.2437 10.7236C53.3533 10.7236 54.2582 10.1743 55.2545 9.50299C57.377 8.0729 60.4615 7.52506 62.2898 8.25346C64.2932 9.05165 64.6859 10.2837 64.6859 15.7707V20.6994L60.9963 20.8168L57.3067 20.9343L57.1863 16.5414L57.066 12.1486L55.043 14.0409L53.0199 15.9332L53.138 21.5737C53.2532 27.0737 53.2798 27.2174 54.2086 27.3443C55.0628 27.461 55.1611 27.7026 55.1611 29.6856V31.8967H49.4461H43.7312L43.7312 29.5102ZM67.0143 29.4806C67.0143 27.1257 67.0411 27.0692 68.0726 27.2491L69.1309 27.4337V19.6894V11.945H68.0726C67.0848 11.945 67.0143 11.8093 67.0143 9.90914V7.87326H71.6709H76.3275V9.29839C76.3275 10.0822 76.4171 10.7235 76.5268 10.7235C76.6364 10.7235 77.5508 10.1643 78.5588 9.48095C79.8536 8.60313 81.0729 8.17076 82.7129 8.00795C84.801 7.80066 85.1709 7.88823 86.3958 8.87953L87.7574 9.98154V15.4423V20.903H84.1591H80.5608V16.8552C80.5608 14.6289 80.3923 12.7073 80.1865 12.5849C79.9806 12.4626 79.0227 13.1862 78.0579 14.193L76.3036 16.0235L76.4214 21.6188C76.5361 27.0721 76.5633 27.2175 77.4916 27.3443C78.3459 27.461 78.4441 27.7026 78.4441 29.6856V31.8967H72.7292H67.0143V29.4806ZM92.9751 31.3026C90.8627 30.4189 90.1656 29.0059 89.9571 25.1859C89.7638 21.6438 90.2691 19.3287 91.44 18.3907C91.8785 18.0394 93.8419 17.7776 97.0275 17.6455L101.939 17.4419L102.07 15.2242C102.282 11.626 102.019 11.1307 99.8989 11.1307C97.6196 11.1307 97.0706 11.6602 97.0706 13.8588V15.6096H93.4723H89.874V13.7643C89.874 10.995 90.826 9.18105 92.6677 8.4409C93.8863 7.95117 95.579 7.84443 100.506 7.94657C106.73 8.07553 106.802 8.08769 107.963 9.20527L109.136 10.3337L109.28 18.7199C109.415 26.5683 109.476 27.1192 110.232 27.3095C110.901 27.4778 111.04 27.8899 111.04 29.7048V31.8967L102.68 31.8809C96.5304 31.8686 93.9635 31.7162 92.9751 31.3026ZM102.06 24.2622L101.939 20.2922L100.108 20.1655C97.4639 19.9825 97.0706 20.4754 97.0706 23.9734C97.0706 28.1153 97.1478 28.2322 99.8829 28.2322H102.181L102.06 24.2622ZM113.58 29.5067C113.58 27.2852 113.648 27.1201 114.533 27.1654C115.485 27.2142 115.485 27.2092 115.601 19.5796L115.716 11.945H114.648C113.649 11.945 113.58 11.8141 113.58 9.90914V7.87326H118.237H122.894V9.28156V10.6899L125.025 9.41572C126.51 8.52758 127.851 8.08609 129.451 7.95845C131.565 7.78984 131.849 7.87349 133.035 9.01451L134.324 10.2537V15.5783V20.903H130.725H127.127V16.8552C127.127 14.4357 126.946 12.6998 126.677 12.5399C126.429 12.3928 125.477 13.0538 124.56 14.0088L122.894 15.7451V21.5815V27.4178H123.952C124.953 27.4178 125.01 27.54 125.01 29.6573V31.8967H119.295H113.58L113.58 29.5067ZM138.134 29.6572C138.134 27.3737 138.323 27.1599 140.144 27.3874C140.552 27.4383 140.673 25.6664 140.673 19.6992V11.945H139.403C138.162 11.945 138.134 11.8998 138.134 9.90912V7.87322H144.06H149.987V9.90912C149.987 11.814 149.918 11.945 148.919 11.945H147.851L147.967 19.5796C148.081 27.1487 148.09 27.2153 149.034 27.3443C149.888 27.4609 149.987 27.7025 149.987 29.6856V31.8967H144.06H138.134L138.134 29.6572ZM139.827 3.9026C136.56 2.33293 139.052 0.138613 144.103 0.137474C145.64 0.137135 147.501 0.339352 148.239 0.586844C150.791 1.44239 150.751 3.26527 148.16 4.19029C146.241 4.87558 141.512 4.71233 139.827 3.9026Z" fill="url(#paint0_linear_1544_15026)"/>
</g>
</g>
<defs>
<linearGradient id="paint0_linear_1544_15026" x1="75.1282" y1="0.103271" x2="75.1282" y2="31.8967" gradientUnits="userSpaceOnUse">
<stop stop-color="white" stop-opacity="0.2"/>
<stop offset="1" stop-color="white" stop-opacity="0.1"/>
</linearGradient>
<clipPath id="clip0_1544_15026">
<rect width="150" height="31.7935" fill="white" transform="translate(0.128174 0.103271)"/>
</clipPath>
</defs>
</svg>
